<svg width="301" height="301" viewBox="0 0 301 301" fill="none" xmlns="http://www.w3.org/2000/svg">
<circle cx="150.22" cy="150.22" r="150.22" fill="#168DE2"/>
<path d="M149.825 205.927C126.187 205.927 102.52 205.927 78.9111 205.978C76.6768 205.978 76 205.449 76 203.15C76.0728 167.736 76.0728 132.319 76 96.9004C76 94.7251 76.5094 94 78.8382 94C126.202 94.0725 173.568 94.0725 220.936 94C223.287 94 224.007 94.5221 224 96.9802C223.913 132.307 223.913 167.635 224 202.962C224 205.34 223.425 206.007 220.994 206C197.269 205.906 173.543 205.942 149.811 205.942L149.825 205.927ZM94.0632 104.529L93.6776 105.254C99.6236 111.055 105.599 116.899 111.508 122.765C120.904 132.097 130.227 141.494 139.644 150.805C145.466 156.606 153.471 156.7 159.104 151.124C173.975 136.37 188.819 121.585 203.637 106.769C204.219 106.182 205.165 105.768 205.129 104.594L94.0632 104.529ZM93.9395 195.421H205.376C205.254 195.167 205.11 194.925 204.947 194.696C192.844 182.666 180.705 170.673 168.653 158.6C167.27 157.207 166.615 157.954 165.604 158.861C155.786 167.649 143.202 167.671 133.348 158.803C131.951 157.548 131.304 157.737 130.125 158.919C118.703 170.346 107.26 181.75 95.7956 193.129C95.126 193.804 94.2088 194.311 93.9395 195.421ZM212.982 188.17V112.251C212.101 112.976 211.526 113.404 211.053 113.89C199.561 125.354 188.114 136.854 176.549 148.245C174.955 149.811 175.094 150.595 176.593 152.052C185.326 160.63 193.95 169.317 202.618 177.953C205.922 181.252 209.263 184.515 212.982 188.184V188.17ZM86.3491 187.981C86.689 187.818 87.0127 187.624 87.3167 187.401C99.3396 175.422 111.334 163.414 123.407 151.501C125.016 149.913 123.895 149.246 122.934 148.289C111.377 136.75 99.8152 125.213 88.2485 113.679C87.79 113.215 87.448 112.396 86.3491 112.758V187.981Z" fill="white"/>
</svg>
