<svg width="301" height="301" viewBox="0 0 301 301" fill="none" xmlns="http://www.w3.org/2000/svg">
<g clip-path="url(#clip0_1034_274)">
<path d="M150.22 300.44C233.184 300.44 300.44 233.184 300.44 150.22C300.44 67.2558 233.184 0 150.22 0C67.2558 0 0 67.2558 0 150.22C0 233.184 67.2558 300.44 150.22 300.44Z" fill="#0788CA"/>
<path d="M93.1797 221.92L91.2998 188.47C90.1665 187.443 89.0497 186.353 87.9497 185.2C76.6797 173.47 70.7197 159.33 70.7197 144.29C70.7197 108.02 106.38 78.51 150.22 78.51C194.06 78.51 229.71 108.02 229.71 144.29C229.71 180.56 194.05 210.06 150.22 210.06C140.331 210.088 130.499 208.552 121.09 205.51L93.1797 221.92ZM150.18 84.51C109.65 84.51 76.6797 111.33 76.6797 144.29C76.6797 157.75 82.06 170.46 92.23 181.05C93.52 182.39 94.8499 183.65 96.1699 184.81L97.1099 185.64L98.5796 211.76L120.37 198.94L121.68 199.39C130.856 202.513 140.487 204.092 150.18 204.06C190.7 204.06 223.67 177.25 223.67 144.29C223.67 111.33 190.74 84.51 150.22 84.51H150.18Z" fill="white"/>
<path d="M180.11 131.64H121.09V137.64H180.11V131.64Z" fill="white"/>
<path d="M180.11 148.31H121.09V154.31H180.11V148.31Z" fill="white"/>
</g>
<defs>
<clipPath id="clip0_1034_274">
<rect width="300.44" height="300.44" fill="white"/>
</clipPath>
</defs>
</svg>
