<svg width="301" height="301" viewBox="0 0 301 301" fill="none" xmlns="http://www.w3.org/2000/svg">
<g clip-path="url(#clip0_1034_279)">
<path d="M150.22 0C110.38 0.00265185 72.1721 15.8302 44.001 44.0013C15.8298 72.1725 0.00265185 110.38 0 150.22C0 190.061 15.8263 228.27 43.998 256.442C72.1698 284.613 110.379 300.44 150.22 300.44C169.947 300.441 189.482 296.557 207.708 289.008C225.934 281.459 242.495 270.394 256.444 256.445C270.394 242.495 281.459 225.934 289.008 207.708C296.557 189.482 300.441 169.948 300.44 150.22C300.44 110.379 284.613 72.1701 256.441 43.9984C228.27 15.8267 190.061 0 150.22 0V0ZM224.84 148C224.848 155.984 223.467 163.909 220.76 171.42L217.87 170.58C220.514 163.345 221.868 155.703 221.87 148C221.853 130.992 215.291 114.642 203.545 102.341C191.799 90.0404 175.769 82.7315 158.78 81.9301L159.07 78.9301C176.793 79.8193 193.498 87.4791 205.736 100.328C217.975 113.177 224.813 130.235 224.84 147.98V148ZM202.26 166.19L199.36 165.39C200.955 160.499 201.765 155.385 201.76 150.24C201.745 137.96 197.13 126.131 188.824 117.087C180.518 108.042 169.124 102.438 156.89 101.38L157.18 98.38C170.157 99.5101 182.24 105.46 191.047 115.058C199.854 124.655 204.746 137.204 204.76 150.23C204.761 155.641 203.917 161.019 202.26 166.17V166.19ZM181.88 160.57L178.98 159.78C180.003 156.704 180.523 153.482 180.52 150.24C180.51 143.047 177.946 136.092 173.285 130.614C168.623 125.136 162.168 121.491 155.07 120.33L155.36 117.33C163.201 118.569 170.344 122.564 175.505 128.595C180.666 134.627 183.508 142.301 183.52 150.24C183.519 153.742 182.965 157.221 181.88 160.55V160.57Z" fill="#189C68"/>
<path d="M148.38 226.6C138.26 226.6 127.44 223.5 120.2 217.81C119.71 217.38 75.0795 178.67 77.8895 134.04V133.79C78.3221 128.149 80.0263 122.679 82.8734 117.79C85.7205 112.901 89.6372 108.72 94.33 105.56L115.8 91.08L133.63 115.37L109.18 133.07C106.163 135.079 104.02 138.155 103.182 141.681C102.343 145.206 102.871 148.918 104.66 152.07L131.09 192.56C131.911 194.028 133.028 195.308 134.371 196.321C135.714 197.333 137.253 198.055 138.89 198.44C140.511 198.83 142.195 198.88 143.837 198.588C145.479 198.295 147.043 197.666 148.43 196.74L169.25 182.59L187.04 208.34L165.28 222.97C160.61 225.42 154.61 226.6 148.38 226.6ZM115.11 95.1801L96.0297 108.05C91.7122 110.95 88.1081 114.791 85.4877 119.284C82.8672 123.776 81.2986 128.804 80.8998 133.99V134.24C78.1798 177.35 121.68 215.11 122.12 215.49C132.75 223.85 152.63 226.17 163.84 220.33L182.84 207.53L168.47 186.73L150.1 199.21C148.373 200.371 146.423 201.16 144.374 201.527C142.325 201.894 140.222 201.83 138.2 201.34C136.176 200.865 134.272 199.977 132.608 198.731C130.944 197.485 129.555 195.908 128.53 194.1L102.1 153.61C99.9187 149.808 99.2597 145.321 100.256 141.053C101.253 136.785 103.83 133.053 107.47 130.61L129.42 114.71L115.11 95.1801Z" fill="white" stroke="white" stroke-width="2" stroke-miterlimit="10"/>
<path d="M224.84 147.98C224.848 155.964 223.467 163.889 220.76 171.4L217.87 170.56C220.514 163.325 221.868 155.683 221.87 147.98C221.853 130.972 215.291 114.622 203.545 102.321C191.799 90.0204 175.769 82.7115 158.78 81.91L159.07 78.91C176.796 79.7995 193.504 87.462 205.743 100.315C217.982 113.169 224.819 130.231 224.84 147.98V147.98Z" fill="white" stroke="white" stroke-width="2" stroke-miterlimit="10"/>
<path d="M204.76 150.22C204.767 155.651 203.924 161.05 202.26 166.22L199.36 165.42C200.955 160.529 201.765 155.415 201.76 150.27C201.745 137.99 197.13 126.161 188.824 117.117C180.518 108.072 169.124 102.468 156.89 101.41L157.18 98.41C170.15 99.5395 182.227 105.484 191.033 115.073C199.839 124.662 204.736 137.201 204.76 150.22Z" fill="white" stroke="white" stroke-width="2" stroke-miterlimit="10"/>
<path d="M183.52 150.22C183.521 153.728 182.967 157.215 181.88 160.55L178.98 159.76C180.003 156.684 180.523 153.462 180.52 150.22C180.51 143.027 177.946 136.072 173.285 130.594C168.623 125.116 162.168 121.471 155.07 120.31L155.36 117.31C163.201 118.549 170.344 122.544 175.505 128.575C180.666 134.607 183.508 142.281 183.52 150.22V150.22Z" fill="white" stroke="white" stroke-width="2" stroke-miterlimit="10"/>
</g>
<defs>
<clipPath id="clip0_1034_279">
<rect width="300.44" height="300.44" fill="white"/>
</clipPath>
</defs>
</svg>
