<svg width="301" height="301" viewBox="0 0 301 301" fill="none" xmlns="http://www.w3.org/2000/svg">
<circle cx="150.22" cy="150.22" r="150.22" fill="#27D061"/>
<path d="M222.105 149.347C222.105 190.21 188.304 222.856 148.008 221.57C137.467 221.229 127.667 218.069 118.383 213.238C117.699 212.831 116.936 212.573 116.145 212.482C115.353 212.39 114.552 212.467 113.793 212.707C102.642 215.933 91.4473 219.042 80.2674 222.151C79.6063 222.333 78.8143 222.936 78.2331 222.362C77.652 221.788 78.313 220.996 78.5382 220.357C82.0687 210.463 85.5922 200.554 89.2244 190.696C89.5256 190.008 89.6456 189.254 89.5731 188.507C89.5006 187.759 89.2379 187.042 88.8101 186.425C62.1788 143.093 88.2944 88.6169 136.951 79.2604C176.855 71.5891 216.134 99.8186 221.422 139.94C221.843 143.318 221.952 146.638 222.105 149.347ZM95.595 205.726C96.5539 206.264 97.2151 205.835 97.8906 205.646C103.303 204.143 108.736 202.697 114.119 201.077C114.923 200.817 115.777 200.748 116.613 200.874C117.449 201 118.244 201.318 118.936 201.804C131.656 209.402 145.414 212.09 160.001 209.656C194.776 203.845 216.816 171.242 209.486 136.707C201.554 99.3174 159.362 78.4177 124.747 94.7263C89.653 111.267 78.5093 153.379 100.84 185.292C101.349 185.907 101.673 186.653 101.776 187.445C101.879 188.237 101.756 189.042 101.421 189.766C99.3725 195.04 97.5201 200.416 95.595 205.726Z" fill="white"/>
<path d="M124.478 111.217C129.258 111.217 129.832 111.58 131.372 115.532C133.123 120.014 134.75 124.547 136.639 128.963C137.67 131.383 137.612 133.533 136.123 135.64C135.02 137.305 133.806 138.894 132.491 140.398C130.958 142.047 130.777 143.529 131.903 145.483C137.918 156.074 146.206 164.13 157.444 169.048C159.311 169.869 160.706 169.739 161.941 168.039C163.75 165.547 165.704 163.15 167.469 160.622C168.537 159.096 169.852 158.653 171.457 159.343C176.956 161.726 182.194 164.632 187.439 167.523C189.095 168.431 188.892 170.087 188.841 171.635C188.594 184.536 175.896 189.796 167.44 188.292C157.21 186.417 147.632 181.947 139.625 175.31C128.88 166.716 120.236 155.784 114.352 143.347C110.044 134.165 109.819 124.932 115.979 116.251C118.158 113.214 120.65 110.548 124.478 111.217Z" fill="white"/>
</svg>
