<svg width="198" height="49" viewBox="0 0 198 49" fill="none" xmlns="http://www.w3.org/2000/svg">
<g clip-path="url(#clip0_875_1180)">
<path opacity="0.5" d="M0.137494 22.2082L14.546 0.332616C14.6129 0.229636 14.7042 0.144986 14.8119 0.0863149C14.9195 0.0276443 15.0401 -0.00319652 15.1626 -0.00341495H38.0018C38.0343 -0.00360431 38.0661 0.00512138 38.094 0.021812C38.1218 0.0385026 38.1446 0.062516 38.1598 0.0912578C38.175 0.12 38.182 0.152366 38.1802 0.184844C38.1783 0.217321 38.1676 0.248669 38.1493 0.275486L23.1778 23.0181C23.1119 23.1212 23.0212 23.206 22.9141 23.2648C22.8069 23.3235 22.6867 23.3542 22.5646 23.3541H0.737289C0.605563 23.3513 0.477001 23.3131 0.364979 23.2435C0.252957 23.174 0.161571 23.0756 0.100333 22.9586C0.0390944 22.8416 0.0102411 22.7103 0.0167768 22.5783C0.0233124 22.4464 0.0649973 22.3186 0.137494 22.2082Z" fill="white"/>
<path opacity="0.5" d="M52.8759 22.2082L38.4674 0.332614C38.4005 0.229634 38.3092 0.144983 38.2015 0.0863127C38.0939 0.0276421 37.9733 -0.00319871 37.8508 -0.00341715H15.0216C14.9872 -0.00351831 14.9534 0.00570611 14.9238 0.0232762C14.8942 0.0408463 14.8699 0.0661117 14.8534 0.0964035C14.8369 0.126695 14.8289 0.160882 14.8302 0.195363C14.8315 0.229843 14.8421 0.263336 14.8608 0.292292L29.8189 23.0181C29.8857 23.121 29.9771 23.2057 30.0847 23.2644C30.1924 23.323 30.3129 23.3539 30.4354 23.3541H52.2593C52.3925 23.3542 52.5232 23.3182 52.6376 23.2499C52.752 23.1815 52.8458 23.0834 52.909 22.9659C52.9722 22.8484 53.0025 22.7159 52.9967 22.5825C52.9909 22.4491 52.9491 22.3197 52.8759 22.2082Z" fill="white"/>
<path opacity="0.5" d="M52.8759 26.7916L38.4674 48.6672C38.4001 48.7698 38.3086 48.8541 38.2011 48.9127C38.0935 48.9713 37.9732 49.0024 37.8508 49.0032H14.9982C14.9659 49.0029 14.9343 48.9939 14.9067 48.9772C14.879 48.9605 14.8563 48.9367 14.841 48.9083C14.8256 48.8798 14.8181 48.8478 14.8192 48.8154C14.8203 48.7831 14.8301 48.7516 14.8474 48.7243L29.8189 25.9818C29.8857 25.8788 29.9771 25.7942 30.0847 25.7355C30.1924 25.6768 30.3129 25.646 30.4354 25.6458H52.2594C52.3925 25.6456 52.5232 25.6816 52.6376 25.75C52.752 25.8183 52.8458 25.9165 52.909 26.034C52.9722 26.1515 53.0025 26.284 52.9967 26.4174C52.9909 26.5508 52.9492 26.6801 52.8759 26.7916Z" fill="white"/>
<path opacity="0.5" d="M0.137494 26.7916L14.546 48.6672C14.6133 48.7698 14.7048 48.8541 14.8123 48.9127C14.9199 48.9713 15.0402 49.0024 15.1626 49.0032H38.0018C38.0362 49.0033 38.07 48.9941 38.0996 48.9765C38.1292 48.959 38.1536 48.9337 38.17 48.9034C38.1865 48.8731 38.1945 48.8389 38.1932 48.8045C38.1919 48.77 38.1814 48.7365 38.1627 48.7075L23.2012 25.9818C23.1354 25.8786 23.0447 25.7938 22.9375 25.7351C22.8303 25.6763 22.7101 25.6456 22.588 25.6458H0.737289C0.605562 25.6486 0.477001 25.6868 0.364979 25.7563C0.252957 25.8259 0.161571 25.9243 0.100333 26.0413C0.0390944 26.1583 0.0102411 26.2896 0.0167768 26.4215C0.0233124 26.5535 0.0649973 26.6813 0.137494 26.7916Z" fill="white"/>
</g>
<path d="M74.087 18.756V9.1H64.941L64.805 12.823C64.686 16.155 64.295 18.705 62.748 18.756H62.272L62.255 23.465H64.805V21H73.203V23.465H75.753V18.756H74.087ZM67.236 13.078L67.287 11.344H71.367V18.756H66.046C66.862 17.787 67.134 15.611 67.236 13.078ZM80.3439 18.79V16.036H85.8689V13.894H80.3439V11.31H86.5999V9.1H77.6069V21H86.8209V18.79H80.3439ZM94.1964 9.1H89.0454V21H91.7994V17.719H94.1964C97.3754 17.719 99.3644 16.07 99.3644 13.418C99.3644 10.749 97.3754 9.1 94.1964 9.1ZM94.0434 15.475H91.7994V11.344H94.0434C95.7264 11.344 96.5764 12.109 96.5764 13.418C96.5764 14.71 95.7264 15.475 94.0434 15.475ZM103.918 18.79V16.036H109.443V13.894H103.918V11.31H110.174V9.1H101.181V21H110.395V18.79H103.918ZM120.865 14.795C121.919 14.285 122.548 13.384 122.548 12.177C122.548 10.205 120.916 9.1 118.162 9.1H112.62V21H118.485C121.494 21 123.109 19.725 123.109 17.651C123.109 16.206 122.31 15.22 120.865 14.795ZM115.357 11.14H117.924C119.114 11.14 119.743 11.65 119.743 12.585C119.743 13.537 119.114 14.03 117.924 14.03H115.357V11.14ZM118.383 18.96H115.357V15.951H118.383C119.658 15.951 120.321 16.427 120.321 17.43C120.321 18.467 119.658 18.96 118.383 18.96ZM129.49 9.1C126.345 9.1 124.356 10.766 124.356 13.537C124.356 15.407 125.257 16.767 126.855 17.413L124.373 21H127.28L129.388 17.838H131.904V21H134.624V9.1H129.49ZM129.558 11.344H131.904V15.662H129.49C127.943 15.662 127.144 14.88 127.144 13.503C127.144 12.075 127.994 11.344 129.558 11.344ZM145.765 9.1V13.792H140.359V9.1H137.605V21H140.359V16.121H145.765V21H148.519V9.1H145.765ZM159.66 9.1V13.792H154.254V9.1H151.5V21H154.254V16.121H159.66V21H162.414V9.1H159.66ZM171.159 13.01H168.133V9.1H165.396V21H170.768C173.828 21 175.664 19.589 175.664 16.852C175.664 14.285 174.032 13.01 171.159 13.01ZM177.177 21H179.914V9.1H177.177V21ZM170.615 18.96H168.133V15.05H170.615C172.043 15.05 172.893 15.594 172.893 16.903C172.893 18.246 172.026 18.96 170.615 18.96ZM185.614 18.79V16.036H191.139V13.894H185.614V11.31H191.87V9.1H182.877V21H192.091V18.79H185.614ZM71.18 39H74.308L70.296 32.846L74.189 27.1H71.282L68.154 31.911H66.182V27.1H63.445V39H66.182V34.206H68.086L71.18 39ZM81.2263 39.204C84.9663 39.204 87.7373 36.603 87.7373 33.05C87.7373 29.497 84.9663 26.896 81.2263 26.896C77.4693 26.896 74.7153 29.514 74.7153 33.05C74.7153 36.586 77.4693 39.204 81.2263 39.204ZM81.2263 36.858C79.1013 36.858 77.5033 35.311 77.5033 33.05C77.5033 30.789 79.1013 29.242 81.2263 29.242C83.3513 29.242 84.9493 30.789 84.9493 33.05C84.9493 35.311 83.3513 36.858 81.2263 36.858ZM95.0099 27.1H89.8589V39H92.6129V35.719H95.0099C98.1889 35.719 100.178 34.07 100.178 31.418C100.178 28.749 98.1889 27.1 95.0099 27.1ZM94.8569 33.475H92.6129V29.344H94.8569C96.5399 29.344 97.3899 30.109 97.3899 31.418C97.3899 32.71 96.5399 33.475 94.8569 33.475ZM107.839 39.204C111.579 39.204 114.35 36.603 114.35 33.05C114.35 29.497 111.579 26.896 107.839 26.896C104.082 26.896 101.328 29.514 101.328 33.05C101.328 36.586 104.082 39.204 107.839 39.204ZM107.839 36.858C105.714 36.858 104.116 35.311 104.116 33.05C104.116 30.789 105.714 29.242 107.839 29.242C109.964 29.242 111.562 30.789 111.562 33.05C111.562 35.311 109.964 36.858 107.839 36.858ZM116.471 39H122.115C125.175 39 126.926 37.623 126.926 35.243C126.926 32.965 125.379 31.741 122.506 31.741H119.208V29.293H126.076V27.1H116.471V39ZM119.208 36.96V33.764H121.962C123.407 33.764 124.138 34.274 124.138 35.328C124.138 36.399 123.373 36.96 121.962 36.96H119.208ZM136.723 39H139.851L135.839 32.846L139.732 27.1H136.825L133.697 31.911H131.725V27.1H128.988V39H131.725V34.206H133.629L136.723 39ZM141.141 39H143.742L149.42 31.265V39H152.14V27.1H149.556L143.878 34.852V27.1H141.141V39Z" fill="white"/>
<defs>
<clipPath id="clip0_875_1180">
<rect width="53" height="49" fill="white"/>
</clipPath>
</defs>
</svg>
