<svg width="188" height="38" viewBox="0 0 188 38" fill="none" xmlns="http://www.w3.org/2000/svg">
<g clip-path="url(#clip0_887_230)">
<path opacity="0.5" d="M0.106528 17.2227L11.2805 0.257912C11.3323 0.17805 11.4032 0.112403 11.4867 0.0669032C11.5702 0.0214035 11.6636 -0.00251381 11.7586 -0.00268321H29.4707C29.4959 -0.00283006 29.5206 0.00393681 29.5422 0.0168805C29.5638 0.0298242 29.5814 0.048447 29.5932 0.0707365C29.605 0.093026 29.6104 0.118126 29.609 0.143313C29.6076 0.1685 29.5993 0.19281 29.585 0.213607L17.9745 17.8507C17.9234 17.9307 17.8531 17.9965 17.77 18.042C17.6869 18.0876 17.5937 18.1114 17.499 18.1113H0.571676C0.46952 18.1091 0.36982 18.0795 0.282945 18.0256C0.196071 17.9716 0.1252 17.8953 0.0777093 17.8046C0.0302184 17.7139 0.00784246 17.612 0.0129109 17.5097C0.0179794 17.4073 0.0503064 17.3082 0.106528 17.2227Z" fill="#432411"/>
<path opacity="0.5" d="M41.0059 17.2227L29.8319 0.25791C29.7801 0.178048 29.7092 0.112401 29.6258 0.0669015C29.5423 0.0214018 29.4488 -0.00251551 29.3538 -0.00268491H11.6495C11.6228 -0.00276336 11.5966 0.00439027 11.5737 0.0180161C11.5507 0.0316419 11.5318 0.0512354 11.5191 0.074727C11.5063 0.0982187 11.5001 0.124731 11.5011 0.151471C11.5021 0.178211 11.5103 0.204185 11.5248 0.22664L23.1249 17.8507C23.1768 17.9306 23.2476 17.9962 23.3311 18.0417C23.4146 18.0872 23.5081 18.1111 23.6031 18.1113H40.5277C40.631 18.1114 40.7324 18.0835 40.8211 18.0305C40.9098 17.9775 40.9825 17.9014 41.0316 17.8102C41.0806 17.7191 41.1041 17.6163 41.0996 17.5129C41.0951 17.4094 41.0627 17.3092 41.0059 17.2227Z" fill="#432411"/>
<path opacity="0.5" d="M41.0059 20.7771L29.8319 37.7418C29.7797 37.8213 29.7088 37.8867 29.6254 37.9322C29.542 37.9776 29.4487 38.0018 29.3538 38.0024H11.6313C11.6063 38.0021 11.5818 37.9952 11.5604 37.9822C11.5389 37.9693 11.5213 37.9508 11.5094 37.9288C11.4975 37.9067 11.4916 37.8818 11.4925 37.8568C11.4934 37.8317 11.5009 37.8073 11.5144 37.7861L23.1249 20.149C23.1767 20.0692 23.2476 20.0035 23.3311 19.958C23.4146 19.9125 23.508 19.8886 23.6031 19.8884H40.5277C40.631 19.8883 40.7324 19.9162 40.8211 19.9692C40.9098 20.0223 40.9825 20.0984 41.0315 20.1895C41.0806 20.2806 41.1041 20.3834 41.0996 20.4868C41.095 20.5903 41.0627 20.6906 41.0059 20.7771Z" fill="#432411"/>
<path opacity="0.5" d="M0.106528 20.7771L11.2805 37.7418C11.3327 37.8213 11.4036 37.8867 11.487 37.9322C11.5704 37.9776 11.6637 38.0018 11.7586 38.0024H29.4707C29.4974 38.0025 29.5236 37.9953 29.5466 37.9817C29.5695 37.9681 29.5884 37.9485 29.6012 37.925C29.6139 37.9015 29.6201 37.875 29.6191 37.8482C29.6181 37.8215 29.6099 37.7955 29.5954 37.7731L17.9927 20.149C17.9416 20.069 17.8713 20.0032 17.7882 19.9577C17.7051 19.9121 17.6118 19.8883 17.5171 19.8884H0.571675C0.46952 19.8906 0.36982 19.9202 0.282945 19.9742C0.196071 20.0281 0.1252 20.1044 0.0777093 20.1951C0.0302184 20.2859 0.00784246 20.3877 0.0129109 20.49C0.0179794 20.5924 0.0503064 20.6915 0.106528 20.7771Z" fill="#432411"/>
</g>
<path d="M63.376 13.888V4.8H54.768L54.64 8.304C54.528 11.44 54.16 13.84 52.704 13.888H52.256L52.24 18.32H54.64V16H62.544V18.32H64.944V13.888H63.376ZM56.928 8.544L56.976 6.912H60.816V13.888H55.808C56.576 12.976 56.832 10.928 56.928 8.544ZM69.2649 13.92V11.328H74.4649V9.312H69.2649V6.88H75.1529V4.8H66.6889V16H75.3609V13.92H69.2649ZM82.3025 4.8H77.4545V16H80.0465V12.912H82.3025C85.2945 12.912 87.1665 11.36 87.1665 8.864C87.1665 6.352 85.2945 4.8 82.3025 4.8ZM82.1585 10.8H80.0465V6.912H82.1585C83.7425 6.912 84.5425 7.632 84.5425 8.864C84.5425 10.08 83.7425 10.8 82.1585 10.8ZM91.4524 13.92V11.328H96.6524V9.312H91.4524V6.88H97.3404V4.8H88.8764V16H97.5484V13.92H91.4524ZM107.402 10.16C108.394 9.68 108.986 8.832 108.986 7.696C108.986 5.84 107.45 4.8 104.858 4.8H99.642V16H105.162C107.994 16 109.514 14.8 109.514 12.848C109.514 11.488 108.762 10.56 107.402 10.16ZM102.218 6.72H104.634C105.754 6.72 106.346 7.2 106.346 8.08C106.346 8.976 105.754 9.44 104.634 9.44H102.218V6.72ZM105.066 14.08H102.218V11.248H105.066C106.266 11.248 106.89 11.696 106.89 12.64C106.89 13.616 106.266 14.08 105.066 14.08ZM115.52 4.8C112.56 4.8 110.688 6.368 110.688 8.976C110.688 10.736 111.536 12.016 113.04 12.624L110.704 16H113.44L115.424 13.024H117.792V16H120.352V4.8H115.52ZM115.584 6.912H117.792V10.976H115.52C114.064 10.976 113.312 10.24 113.312 8.944C113.312 7.6 114.112 6.912 115.584 6.912ZM130.838 4.8V9.216H125.75V4.8H123.158V16H125.75V11.408H130.838V16H133.43V4.8H130.838ZM143.916 4.8V9.216H138.828V4.8H136.236V16H138.828V11.408H143.916V16H146.508V4.8H143.916ZM154.738 8.48H151.89V4.8H149.314V16H154.37C157.25 16 158.978 14.672 158.978 12.096C158.978 9.68 157.442 8.48 154.738 8.48ZM160.402 16H162.978V4.8H160.402V16ZM154.226 14.08H151.89V10.4H154.226C155.57 10.4 156.37 10.912 156.37 12.144C156.37 13.408 155.554 14.08 154.226 14.08ZM168.343 13.92V11.328H173.543V9.312H168.343V6.88H174.231V4.8H165.767V16H174.439V13.92H168.343ZM60.64 33H63.584L59.808 27.208L63.472 21.8H60.736L57.792 26.328H55.936V21.8H53.36V33H55.936V28.488H57.728L60.64 33ZM70.0954 33.192C73.6154 33.192 76.2234 30.744 76.2234 27.4C76.2234 24.056 73.6154 21.608 70.0954 21.608C66.5594 21.608 63.9674 24.072 63.9674 27.4C63.9674 30.728 66.5594 33.192 70.0954 33.192ZM70.0954 30.984C68.0954 30.984 66.5914 29.528 66.5914 27.4C66.5914 25.272 68.0954 23.816 70.0954 23.816C72.0954 23.816 73.5994 25.272 73.5994 27.4C73.5994 29.528 72.0954 30.984 70.0954 30.984ZM83.0681 21.8H78.2201V33H80.8121V29.912H83.0681C86.0601 29.912 87.9321 28.36 87.9321 25.864C87.9321 23.352 86.0601 21.8 83.0681 21.8ZM82.9241 27.8H80.8121V23.912H82.9241C84.5081 23.912 85.3081 24.632 85.3081 25.864C85.3081 27.08 84.5081 27.8 82.9241 27.8ZM95.1423 33.192C98.6623 33.192 101.27 30.744 101.27 27.4C101.27 24.056 98.6623 21.608 95.1423 21.608C91.6063 21.608 89.0143 24.072 89.0143 27.4C89.0143 30.728 91.6063 33.192 95.1423 33.192ZM95.1423 30.984C93.1423 30.984 91.6383 29.528 91.6383 27.4C91.6383 25.272 93.1423 23.816 95.1423 23.816C97.1423 23.816 98.6463 25.272 98.6463 27.4C98.6463 29.528 97.1423 30.984 95.1423 30.984ZM103.267 33H108.579C111.459 33 113.107 31.704 113.107 29.464C113.107 27.32 111.651 26.168 108.947 26.168H105.843V23.864H112.307V21.8H103.267V33ZM105.843 31.08V28.072H108.435C109.795 28.072 110.483 28.552 110.483 29.544C110.483 30.552 109.763 31.08 108.435 31.08H105.843ZM122.328 33H125.272L121.496 27.208L125.16 21.8H122.424L119.48 26.328H117.624V21.8H115.048V33H117.624V28.488H119.416L122.328 33ZM126.486 33H128.934L134.278 25.72V33H136.838V21.8H134.406L129.062 29.096V21.8H126.486V33Z" fill="#432411"/>
<defs>
<clipPath id="clip0_887_230">
<rect width="41.102" height="38" fill="white"/>
</clipPath>
</defs>
</svg>
